<?xml version="1.0" encoding="utf-8"?>
<!-- Generator: Adobe Illustrator 22.1.0, SVG Export Plug-In . SVG Version: 6.00 Build 0)  -->
<svg version="1.1" id="Слой_1" xmlns="http://www.w3.org/2000/svg" xmlns:xlink="http://www.w3.org/1999/xlink" x="0px" y="0px"
	 width="542px" height="229px" viewBox="0 0 542 229" style="enable-background:new 0 0 542 229;" xml:space="preserve">
<style type="text/css">
	.st0{fill:#7AA228;}
</style>
<g id="Слой_x0020_1">
	<path class="st0" d="M203.3,73.9c14.9,2,26.4,14.8,26.4,30.3c0,13.2-8.4,24.4-20.1,28.7c1.4,3.1,2.2,6.5,2.2,10.1
		c0,11.7-8,21.5-18.8,24.2v-31l-38.5-43.1l-38.5,43.1V166c-8.4-3.8-14.3-12.3-14.3-22.2c0-3.4,0.7-6.6,1.9-9.5
		c-13.9-2.4-24.4-14.4-24.4-28.9c0-13.3,8.8-24.5,20.9-28.1c-2.3-4-3.6-8.6-3.6-13.5c0-15,12.2-27.2,27.2-27.2
		c8.1,0,15.4,3.6,20.4,9.2c4.5-12.7,16.7-21.9,31-21.9c18.2,0,32.9,14.7,32.9,32.9C208.1,63.1,206.3,69,203.3,73.9z M144.7,159.2
		h19.5v14.9c0-0.3,0-0.5,0-0.8c0,0.6,0,1.2,0,1.8v2.5c0.3,7.4,2.6,14.4,11.2,14.7c-0.4,0.1-0.9,0.2-1.2,0.2
		c49.9,1.5,93.3,8.4,120.6,18.4c-30.8-7.9-82.2-13.2-140.4-13.2c-58.1,0-109.5,5.2-140.3,13.2c27.3-10,70.7-17,120.7-18.4
		c-0.4-0.1-0.8-0.1-1.2-0.2c8.4-0.3,10.8-6.9,11.2-14v-5V159.2z"/>
	<path class="st0" d="M310.7,61.3v8.6h2.9c0.9,0,1.8-0.2,2.5-0.6c0.7-0.4,1.3-1,1.7-1.7s0.6-1.5,0.6-2.4c0-1-0.3-1.9-0.9-2.7
		c-0.6-0.8-1.5-1.2-2.6-1.3c-0.4-0.1-0.9-0.1-1.8-0.1l-1.2,0.1c-0.1,0-0.4,0-0.6,0C311,61.3,310.8,61.3,310.7,61.3z M308.2,71.1
		V51.6h11.6c-0.1,0.2-0.1,0.5-0.1,0.9c0,0.3,0,0.6,0.1,0.9c-0.5-0.1-1-0.2-1.4-0.2c-0.5-0.1-0.9-0.1-1.2-0.1l-3.4-0.1h-3.1v7.2h2.6
		c2.7,0,4.7,0.4,5.9,1.2s1.8,2,1.8,3.8c0,1.1-0.3,2.1-0.8,3c-0.5,0.9-1.3,1.6-2.3,2.1c-0.5,0.3-1.1,0.5-1.6,0.7
		c-0.6,0.1-1.2,0.2-1.8,0.2H308.2z M334.4,62.1v6.6c0,0.1,0,0.3,0,0.5s0,0.3,0,0.4c0,0.1,0.1,0.3,0.2,0.4c0.1,0.1,0.3,0.2,0.5,0.2
		c0.2,0,0.5,0,0.8-0.1v0.6c-0.3,0.1-0.6,0.3-0.9,0.3c-0.3,0.1-0.5,0.1-0.9,0.1c-0.3,0-0.5-0.1-0.8-0.1c-0.2-0.1-0.4-0.2-0.6-0.3
		c-0.3-0.3-0.5-0.7-0.6-1.3l-0.3,0.3c-1.2,1.2-2.6,1.8-4.3,1.8c-1,0-2-0.3-2.7-1c-0.8-0.7-1.1-1.5-1.1-2.5c0-1,0.2-1.8,0.7-2.4
		c0.5-0.6,1-0.9,1.7-1.2c0.7-0.2,1.6-0.4,2.9-0.6c0.9-0.1,1.5-0.3,1.9-0.4c0.4-0.1,0.7-0.3,0.9-0.5c0.2-0.2,0.3-0.5,0.3-1
		c0-1.1-0.3-1.9-0.9-2.5c-0.6-0.6-1.4-0.9-2.5-0.9c-0.6,0-1.2,0.1-1.7,0.3c-0.5,0.2-0.9,0.5-1.2,0.8c-0.3,0.3-0.5,0.6-0.6,0.9h-0.3
		v-1.6c1.6-1,3.1-1.6,4.6-1.6c1.5,0,2.7,0.4,3.5,1.2C334,59.3,334.4,60.6,334.4,62.1z M332.1,68.2V64l-1,0.3
		c-0.4,0.1-0.8,0.1-1.2,0.2s-0.6,0.1-0.7,0.1c-0.4,0.1-0.9,0.3-1.3,0.5c-0.5,0.2-0.9,0.5-1.2,0.9c-0.3,0.4-0.5,0.9-0.5,1.5
		c0,0.9,0.2,1.6,0.7,2c0.5,0.5,1.2,0.7,2.1,0.7c0.3,0,0.7-0.1,1.2-0.3c0.4-0.2,0.8-0.5,1.1-0.8l0.3-0.3l0.3-0.3
		C332,68.4,332,68.3,332.1,68.2z M347.4,60.8c0,0.8-0.3,1.4-0.8,2c-0.5,0.5-1.2,0.9-2.1,1c1.1,0.1,2,0.5,2.7,1.1
		c0.7,0.6,1,1.4,1,2.5c0,1.3-0.6,2.3-1.7,3c-1.2,0.7-2.5,1-4,1c-1.9,0-3.4-0.3-4.5-0.9c0.3-1,0.5-1.7,0.6-2.1h0.2
		c0.7,1.4,2,2.1,3.7,2.1c0.6,0,1.2-0.1,1.6-0.4c0.5-0.3,0.9-0.6,1.1-1.1c0.3-0.5,0.4-1,0.4-1.6c0-0.9-0.3-1.7-0.9-2.2
		s-1.4-0.8-2.4-0.8l-2,0.1v-1.2l2,0.1c0.7,0,1.3-0.2,1.8-0.7c0.5-0.5,0.7-1.1,0.7-1.8c0-0.5-0.1-0.9-0.3-1.3
		c-0.2-0.4-0.5-0.7-0.9-0.9s-0.9-0.3-1.3-0.3c-1.4,0-2.4,0.7-2.9,1.9h-0.3c-0.1-0.7-0.4-1.3-0.7-2c0.8-0.5,2.2-0.7,4.2-0.7
		c0.6,0,1.2,0.1,1.8,0.2c0.6,0.1,1.1,0.3,1.5,0.7c0.5,0.3,0.8,0.7,1.1,1.1C347.3,59.7,347.4,60.2,347.4,60.8z M361.3,62.1v6.6
		c0,0.1,0,0.3,0,0.5s0,0.3,0,0.4c0,0.1,0.1,0.3,0.2,0.4c0.1,0.1,0.3,0.2,0.5,0.2c0.2,0,0.5,0,0.9-0.1v0.6c-0.3,0.1-0.6,0.3-0.9,0.3
		c-0.3,0.1-0.6,0.1-0.9,0.1c-0.3,0-0.5-0.1-0.8-0.1c-0.2-0.1-0.5-0.2-0.6-0.3c-0.3-0.3-0.6-0.7-0.7-1.3l-0.3,0.3
		c-1.2,1.2-2.6,1.8-4.3,1.8c-1,0-1.9-0.3-2.7-1c-0.8-0.7-1.1-1.5-1.1-2.5c0-1,0.2-1.8,0.7-2.4c0.5-0.6,1-0.9,1.7-1.2
		c0.7-0.2,1.6-0.4,2.9-0.6c0.9-0.1,1.6-0.3,1.9-0.4s0.7-0.3,0.9-0.5c0.2-0.2,0.3-0.5,0.3-1c0-1.1-0.3-1.9-0.9-2.5
		c-0.6-0.6-1.4-0.9-2.5-0.9c-0.6,0-1.2,0.1-1.6,0.3c-0.5,0.2-0.9,0.5-1.2,0.8c-0.3,0.3-0.5,0.6-0.6,0.9h-0.3v-1.6
		c1.5-1,3.1-1.6,4.6-1.6c1.5,0,2.7,0.4,3.5,1.2C360.9,59.3,361.3,60.6,361.3,62.1z M359,68.2V64l-1,0.3c-0.5,0.1-0.8,0.1-1.2,0.2
		c-0.3,0.1-0.6,0.1-0.7,0.1c-0.4,0.1-0.9,0.3-1.3,0.5c-0.5,0.2-0.9,0.5-1.2,0.9c-0.3,0.4-0.5,0.9-0.5,1.5c0,0.9,0.3,1.6,0.7,2
		c0.5,0.5,1.2,0.7,2.1,0.7c0.4,0,0.8-0.1,1.2-0.3c0.5-0.2,0.8-0.5,1.1-0.8l0.3-0.3l0.3-0.3C359,68.4,359,68.3,359,68.2z M372.8,64.2
		c0-1,0.2-2,0.5-2.8c0.3-0.8,0.9-1.6,1.5-2.2c0.7-0.6,1.4-1.1,2.3-1.4c0.9-0.3,1.8-0.5,2.9-0.5c1.3,0,2.5,0.3,3.5,0.9
		s1.8,1.4,2.4,2.4c0.5,1,0.8,2.3,0.8,3.7c0,0.9-0.1,1.8-0.5,2.6c-0.3,0.9-0.8,1.6-1.4,2.3c-0.6,0.7-1.4,1.2-2.3,1.6
		c-0.9,0.4-1.9,0.6-3,0.6c-1.2,0-2.4-0.3-3.4-0.9c-1-0.6-1.9-1.4-2.5-2.5S372.8,65.7,372.8,64.2z M380,58.2c-1.1,0-2.1,0.3-2.7,0.9
		c-0.7,0.6-1.2,1.4-1.5,2.4c-0.3,1-0.5,2-0.5,3.1c0,1.1,0.2,2,0.5,2.9c0.3,0.9,0.8,1.6,1.5,2.1c0.7,0.6,1.5,0.9,2.6,0.9
		c1,0,1.8-0.3,2.5-1c0.7-0.7,1.2-1.5,1.5-2.5c0.3-1,0.4-1.9,0.4-2.8c0-0.7-0.1-1.4-0.2-2.1c-0.1-0.7-0.4-1.3-0.7-1.9
		c-0.3-0.6-0.8-1-1.3-1.4C381.4,58.4,380.8,58.2,380,58.2z M395.2,58.9v12.3l-0.5-0.1c-0.1,0-0.3,0-0.3,0h-0.3h-0.4l-0.3,0l-0.5,0.1
		V58.9c-2.1,0-3.7,0.1-4.9,0.3l0.1-0.8l-0.1-0.8h12.1l-0.1,0.8l0.1,0.8C399,59,397.4,58.9,395.2,58.9z M400.5,69.8h1.2l1.8-3.9
		c0.6-1.3,1.2-2.7,1.9-4.4c0.3-0.7,0.6-1.4,0.8-2.1c0.3-0.7,0.5-1.3,0.7-1.9h0.2h0.2l0.2,0.1l0.2,0l0.3,0l0.3-0.1h0.3
		c1.2,3.4,2.9,7.5,5,12.3h1l-0.1,1.1c0,0.5,0,0.9,0.1,1h-0.2c-0.3-0.3-0.7-0.5-1.2-0.6c-0.2-0.1-0.4-0.1-0.7-0.2
		c-0.3,0-0.5-0.1-0.7-0.1c-0.4,0-0.8,0-1.1,0c-0.4,0-0.7,0-1,0h-4.3c-1.3,0-2.4,0-3,0.1c-0.7,0.1-1.2,0.3-1.7,0.7h-0.3
		c0.1-0.2,0.1-0.5,0.1-1C400.5,70.4,400.5,70.1,400.5,69.8z M403.3,69.8h7.9c-0.7-2.3-2-5.5-3.8-9.6h-0.2l-1.7,4.2
		c-0.4,0.9-0.8,1.9-1.1,2.8C404,68,403.7,68.9,403.3,69.8z M414.7,71.1h2.2V57.5c0.3,0.1,0.7,0.1,1.2,0.1c0.4,0,0.8,0,1.1-0.1v5.7
		h3.4c0.9,0,1.7,0.1,2.4,0.5c0.7,0.3,1.3,0.7,1.7,1.3c0.4,0.6,0.6,1.3,0.6,2.2c0,0.7-0.2,1.4-0.7,2c-0.5,0.6-1.1,1.1-1.9,1.4
		c-0.8,0.3-1.6,0.5-2.3,0.5H414.7z M419.2,64.4v5.5l1.1,0.1h1c0.6,0,1.1-0.1,1.7-0.3c0.5-0.2,1-0.6,1.3-1s0.5-0.9,0.5-1.5
		c0-1-0.3-1.7-0.9-2.1c-0.6-0.5-1.4-0.7-2.2-0.7H419.2z M431,57.5v13.7l-0.4-0.1c-0.2,0-0.3,0-0.3,0h-0.4h-0.4l-0.3,0l-0.4,0.1V57.5
		c0.3,0.1,0.7,0.1,1.1,0.1C430.3,57.6,430.7,57.5,431,57.5z M439.3,64.4l-5.2-6.9l0.9,0.1l0.6,0l0.6,0l0.9-0.1
		c0.4,0.7,1,1.7,1.8,2.8c0.8,1.1,1.4,2,1.9,2.6l1.6-2.1l2.4-3.3l0.6,0.1l0.4,0l0.4,0l0.6-0.1l-1.7,1.9l-1.7,2
		c-0.5,0.6-1.2,1.4-1.9,2.3l5.4,7.2v0.3l-0.6-0.1c-0.2,0-0.3,0-0.4,0h-0.4l-0.6,0l-0.7,0.1c-0.3-0.4-0.5-0.9-0.9-1.3
		c-0.3-0.5-0.6-1-1-1.5c-0.7-1-1.4-2-2.2-3l-2.2,3.1c-0.3,0.4-0.7,0.9-1,1.4c-0.3,0.4-0.6,0.9-0.9,1.4l-0.3-0.1c-0.1,0-0.2,0-0.2,0
		H435h-0.3l-0.2,0l-0.3,0.1v-0.3l3.1-3.9L439.3,64.4z M459.4,62.1v6.6c0,0.1,0,0.3,0,0.5s0,0.3,0,0.4c0,0.1,0.1,0.3,0.2,0.4
		c0.1,0.1,0.3,0.2,0.5,0.2c0.2,0,0.5,0,0.8-0.1v0.6c-0.3,0.1-0.6,0.3-0.9,0.3c-0.3,0.1-0.6,0.1-0.9,0.1c-0.3,0-0.5-0.1-0.7-0.1
		c-0.3-0.1-0.5-0.2-0.7-0.3c-0.3-0.3-0.5-0.7-0.6-1.3l-0.3,0.3c-1.2,1.2-2.6,1.8-4.3,1.8c-1,0-2-0.3-2.7-1c-0.7-0.7-1.1-1.5-1.1-2.5
		c0-1,0.2-1.8,0.7-2.4c0.5-0.6,1-0.9,1.7-1.2c0.7-0.2,1.6-0.4,2.9-0.6c0.9-0.1,1.5-0.3,1.9-0.4c0.4-0.1,0.7-0.3,0.8-0.5
		c0.2-0.2,0.3-0.5,0.3-1c0-1.1-0.3-1.9-0.9-2.5c-0.6-0.6-1.4-0.9-2.5-0.9c-0.6,0-1.2,0.1-1.7,0.3c-0.5,0.2-0.9,0.5-1.2,0.8
		c-0.3,0.3-0.5,0.6-0.6,0.9h-0.3v-1.6c1.6-1,3.1-1.6,4.6-1.6c1.5,0,2.7,0.4,3.5,1.2C459,59.3,459.4,60.6,459.4,62.1z M457.1,68.2V64
		l-1,0.3c-0.4,0.1-0.8,0.1-1.1,0.2c-0.3,0.1-0.6,0.1-0.7,0.1c-0.4,0.1-0.9,0.3-1.3,0.5c-0.5,0.2-0.9,0.5-1.2,0.9
		c-0.3,0.4-0.5,0.9-0.5,1.5c0,0.9,0.2,1.6,0.7,2c0.5,0.5,1.2,0.7,2.1,0.7c0.3,0,0.7-0.1,1.2-0.3c0.4-0.2,0.8-0.5,1.1-0.8l0.3-0.3
		l0.3-0.3C457,68.4,457,68.3,457.1,68.2z"/>
	<path class="st0" d="M255.9,92.2c0,0.1-0.5,1.1-1.4,3.2c-0.4,1-0.9,2-1.2,2.9c-0.4,1-0.8,1.9-1.2,2.8c-1,2.4-2,4.9-2.9,7.4
		c-0.9,2.4-1.8,4.8-2.5,7.1l-0.8-0.1l-0.7,0h-0.5l-0.4,0.1l-0.6,0.1l3.5-7.5c0.9-1.9,1.8-4,2.8-6.2c0.8-1.9,1.7-3.9,2.6-6.1
		c1.7-3.9,2.7-6.6,3.3-8.1h1.9l3.3,8l5,12c1.9,4.4,3.1,7.1,3.5,8l-0.8-0.1h-0.3c-0.1,0-0.1,0-0.2,0c-0.1,0-0.1,0-0.1,0h-0.6h-0.6
		l-0.6,0.1l-0.8,0.1l-1.6-4l-3.1-7.9l-2.8-7.2l-1.8-4.4H255.9z M277,89.7v10.2h6.3h1.1l1.2-0.1l1.3-0.1l-0.1,0.6l-0.1,0.5l0.1,0.4
		l0.1,0.7l-1.3-0.1l-1.2-0.1h-1.1H277v11.9c0.3,0,1.4,0,3.3-0.1c1.9,0,3.3-0.1,4.1-0.1c0.5,0,1.1,0,1.6-0.1c0.5-0.1,1.2-0.1,2.1-0.3
		l-0.1,0.5l0,0.4l0,0.4c0,0.3,0,0.5,0,0.6l0.1,0.6h-14.8V87.7H288l-0.1,0.7l-0.1,0.5l0.1,0.5l0.1,0.7c-0.7-0.1-1.3-0.3-1.7-0.3
		c-0.7-0.1-1.3-0.1-2-0.1l-4.1-0.1H277z M315.4,111.3l-0.2,2.6c-0.8,0.5-1.7,1-2.7,1.3c-0.9,0.3-1.9,0.6-3,0.7
		c-1.1,0.2-2.2,0.3-3.3,0.3c-2.2,0-4.2-0.3-6-1c-1.8-0.7-3.3-1.6-4.5-2.9c-1.2-1.3-2.2-2.8-2.9-4.7c-0.7-1.8-1-3.8-1-6
		c0-3,0.7-5.6,2-7.7c1.3-2.2,3.2-3.8,5.6-5c2.4-1.1,5-1.7,7.8-1.7c1,0,2,0.1,3,0.2c1,0.1,2,0.3,3,0.6c1,0.3,1.9,0.7,2.8,1
		c-0.3,0.9-0.6,1.9-0.9,3.1l-0.3,0.1c-0.3-0.4-0.8-0.9-1.5-1.4c-0.7-0.5-1.6-1-2.7-1.4c-1.1-0.5-2.3-0.7-3.6-0.7
		c-2.4,0-4.4,0.6-6.1,1.7c-1.7,1.2-2.9,2.8-3.8,4.8c-0.9,2-1.3,4.2-1.3,6.5c0,2.6,0.5,4.8,1.4,6.7c0.9,2,2.2,3.5,3.9,4.5
		c1.7,1.1,3.5,1.6,5.7,1.6c1.4,0,2.6-0.2,3.8-0.6s2.2-0.9,3-1.4C314.3,112.1,314.9,111.7,315.4,111.3z M341.9,99.4V87.7l1,0.1l0.8,0
		l0.7,0l1-0.1v27.9l-0.7-0.1c-0.3,0-0.4,0-0.5-0.1h-0.6h-0.6l-0.5,0.1l-0.7,0.1v-14l-2.9-0.1l-3.3-0.1h-2.4H331c-0.4,0-1,0-1.8,0.1
		c-0.8,0-1.3,0.1-1.6,0.1l-2.9,0.1v14l-0.7-0.1c-0.3,0-0.4,0-0.5-0.1h-0.6l-0.8,0l-1,0.1V87.7l1,0.1l0.8,0l0.7,0l1.1-0.1v11.7
		l8.6,0.2c1.2-0.1,2.6-0.1,4.3-0.1C339.3,99.5,340.7,99.4,341.9,99.4z M366,116.2c-2.2,0-4.3-0.3-6.1-1c-1.9-0.7-3.5-1.7-4.8-2.9
		s-2.4-2.8-3.1-4.6c-0.3-0.9-0.6-1.8-0.8-2.8c-0.2-0.9-0.3-2-0.3-3.1c0-2.2,0.4-4.2,1.1-6c0.8-1.8,1.8-3.4,3.3-4.7
		c1.3-1.2,2.9-2.2,4.8-2.9c1.8-0.7,3.8-1,6-1c2,0,3.9,0.3,5.7,0.8c1.9,0.5,3.5,1.4,5,2.5c1.4,1.2,2.6,2.6,3.5,4.4
		c0.9,1.8,1.3,3.8,1.3,6.2c0,2.9-0.7,5.6-2,7.9c-1.3,2.3-3.2,4.1-5.5,5.3C371.6,115.5,368.9,116.2,366,116.2z M377.5,101.4
		c0-1.3-0.1-2.5-0.2-3.4c-0.1-0.9-0.4-1.9-0.8-2.9c-0.4-1-0.9-1.9-1.6-2.7c-0.7-0.9-1.4-1.6-2.3-2.1c-0.9-0.6-1.9-1-3-1.4
		c-1.1-0.3-2.2-0.5-3.2-0.5c-1.8,0-3.4,0.3-4.8,1c-1.4,0.7-2.6,1.6-3.6,2.8c-1,1.2-1.8,2.7-2.3,4.4c-0.5,1.7-0.8,3.6-0.8,5.6
		c0,2,0.3,3.7,0.8,5.3c0.6,1.6,1.4,2.9,2.4,4c1,1.1,2.2,1.9,3.6,2.5c1.4,0.5,2.8,0.8,4.3,0.8c1.9,0,3.6-0.4,5.1-1.2
		c1.5-0.8,2.7-1.9,3.6-3.3c0.9-1.3,1.6-2.8,2.1-4.4C377.3,104.2,377.5,102.7,377.5,101.4z M386.9,115.7V87.7c0.4,0.1,1,0.1,1.8,0.1
		c0.8,0,1.4,0,1.8-0.1v21.3h0.4l18.6-21.3h1.8v27.9c-0.7-0.1-1.3-0.1-1.8-0.1c-0.4,0-1,0-1.8,0.1V93.4h-0.4l-6.2,7.2l-8.5,9.9
		l-4.4,5.2H386.9z M406.7,82.7l1,1.6c-1.2,0.7-2.6,1.3-4,1.7s-2.9,0.6-4.4,0.6c-2.9,0-5.8-0.8-8.4-2.3l1-1.7c2.1,1.4,4.5,2,7.4,2
		C402.1,84.7,404.6,84.1,406.7,82.7z M426.2,113.6h1.8l2.8-6.2l3.4-7.7l3.1-7.3c0.9-2.2,1.5-3.7,1.8-4.6h2l3.5,8.4l4.4,10.6l2.9,6.8
		h1.8c-0.1,0.4-0.1,1-0.1,1.6c0,0.9,0,1.6,0.1,2h-0.4c-0.5-0.8-1.4-1.3-2.5-1.4c-1.2-0.2-3-0.3-5.6-0.3h-10c-0.7,0-1.3,0-2,0
		c-0.7,0-1.4,0.1-2.2,0.1c-0.5,0-0.9,0-1.3,0.1c-0.4,0.1-0.8,0.2-1.3,0.3c-0.7,0.2-1.3,0.6-1.9,1.2h-0.3c0.1-0.4,0.1-1.1,0.1-2
		L426.2,113.6z M430.6,113.6h17.5l-2-5l-3.3-8.3l-2.4-5.9l-0.9-2.2h-0.2l-2.2,4.9L435,102c-0.9,2.2-1.7,4.1-2.3,5.8
		S431.4,111.3,430.6,113.6z M470.3,116.2c-2.2,0-4.3-0.3-6.2-1c-1.8-0.7-3.5-1.7-4.8-2.9c-1.3-1.3-2.4-2.8-3.1-4.6
		c-0.4-0.9-0.6-1.8-0.8-2.8c-0.2-0.9-0.3-2-0.3-3.1c0-2.2,0.4-4.2,1.1-6c0.7-1.8,1.8-3.4,3.2-4.7c1.4-1.2,2.9-2.2,4.8-2.9
		c1.8-0.7,3.8-1,6-1c2,0,3.9,0.3,5.7,0.8c1.9,0.5,3.5,1.4,5,2.5c1.5,1.2,2.6,2.6,3.5,4.4c0.9,1.8,1.3,3.8,1.3,6.2
		c0,2.9-0.7,5.6-2,7.9c-1.3,2.3-3.2,4.1-5.6,5.3C475.9,115.5,473.3,116.2,470.3,116.2z M481.8,101.4c0-1.3-0.1-2.5-0.2-3.4
		c-0.1-0.9-0.4-1.9-0.8-2.9c-0.4-1-0.9-1.9-1.6-2.7c-0.7-0.9-1.4-1.6-2.3-2.1c-0.9-0.6-1.9-1-2.9-1.4c-1.1-0.3-2.2-0.5-3.2-0.5
		c-1.8,0-3.4,0.3-4.8,1s-2.6,1.6-3.7,2.8c-1,1.2-1.8,2.7-2.3,4.4c-0.5,1.7-0.8,3.6-0.8,5.6c0,2,0.3,3.7,0.8,5.3
		c0.6,1.6,1.4,2.9,2.4,4c1,1.1,2.3,1.9,3.6,2.5c1.4,0.5,2.8,0.8,4.3,0.8c1.9,0,3.6-0.4,5.1-1.2c1.4-0.8,2.6-1.9,3.6-3.3
		c0.9-1.3,1.6-2.8,2.1-4.4C481.6,104.2,481.8,102.7,481.8,101.4z M517.8,87.7h0.9l0.7,6.9c0.3,2.6,0.5,5.1,0.9,7.6l0.8,6.6l0.9,6.9
		l-0.8-0.1c-0.3,0-0.4,0-0.5-0.1H520l-0.9,0l-1,0.1c0-1.1-0.1-2.5-0.3-4.1c-0.1-0.9-0.2-1.7-0.3-2.6l-0.6-5.5l-0.5-4.8
		c-0.2-1.9-0.4-3.2-0.5-4.1c-1,1.8-1.8,3.2-2.4,4.3c-0.8,1.4-1.5,2.7-2,3.8c-0.5,1-0.9,1.7-1.2,2.2c-0.1,0.2-0.5,0.9-1.2,2.3
		c-0.3,0.5-0.7,1.3-1.1,2.2c-1,2.1-1.9,4.1-2.7,5.8h-0.5l-2.2-4.6c-0.5-1-1-2.1-1.7-3.5c-0.6-1.2-1.3-2.6-2.1-4.1l-4.4-8.4
		c-0.1,1-0.2,2-0.3,3c-0.1,0.9-0.2,2-0.3,3.1l-0.7,6.1l-0.5,5.5c0,0.4,0,1-0.1,1.8c0,0.8-0.1,1.3-0.1,1.7l-0.6-0.1
		c-0.2,0-0.3,0-0.4-0.1h-0.5h-0.5l-0.4,0.1l-0.6,0.1l1.3-8.4l1.6-11.6c0.5-4,0.9-6.6,1-7.9h1l3,5.8l2.1,4l2.9,5.4
		c0.7,1.3,1.3,2.3,1.7,3c0.5,0.9,1.2,2,1.9,3.2l3.1-5.7l4.2-7.8c0.6-1.2,1.2-2.2,1.8-3.3c0.5-0.9,1-1.8,1.4-2.6
		C517.1,88.9,517.5,88.2,517.8,87.7z"/>
	<path class="st0" d="M307.5,146.6v-14.8h7.7l-0.1,0.4l0,0.3l0,0.3l0.1,0.4c-0.4-0.1-0.7-0.1-0.9-0.2c-0.4,0-0.7-0.1-1.1-0.1
		l-2.2-0.1h-1.7v5.4h3.4h0.6l0.6-0.1l0.7-0.1l0,0.3l0,0.2l0,0.2l0,0.4l-0.7,0l-0.6-0.1h-0.6h-3.4v7.4l-0.4,0c-0.1,0-0.2,0-0.3,0
		h-0.3l-0.5,0L307.5,146.6z M331.4,139c0-0.7,0-1.3-0.1-1.8c-0.1-0.5-0.2-1-0.4-1.5c-0.2-0.5-0.5-1-0.9-1.4
		c-0.4-0.5-0.8-0.8-1.2-1.1c-0.5-0.3-1-0.5-1.6-0.7c-0.6-0.2-1.1-0.3-1.7-0.3c-0.9,0-1.8,0.2-2.6,0.5c-0.8,0.3-1.4,0.9-1.9,1.5
		c-0.5,0.7-0.9,1.4-1.2,2.3c-0.3,0.9-0.4,1.9-0.4,3c0,1,0.1,2,0.4,2.8c0.3,0.8,0.7,1.5,1.3,2.1c0.5,0.6,1.2,1,1.9,1.3
		c0.7,0.3,1.5,0.5,2.3,0.5c1,0,1.9-0.2,2.7-0.7c0.8-0.5,1.4-1,1.9-1.8c0.5-0.7,0.9-1.5,1.1-2.4C331.3,140.5,331.4,139.7,331.4,139z
		 M325.3,146.8c-1.2,0-2.3-0.2-3.3-0.5c-1-0.3-1.8-0.9-2.5-1.6c-0.7-0.7-1.2-1.5-1.6-2.4c-0.2-0.5-0.3-1-0.4-1.5
		c-0.1-0.5-0.1-1-0.1-1.6c0-1.2,0.2-2.2,0.6-3.2c0.4-1,1-1.8,1.7-2.5c0.7-0.7,1.6-1.2,2.5-1.5s2-0.5,3.2-0.5c1,0,2,0.1,3,0.4
		c1,0.3,1.9,0.8,2.6,1.4c0.8,0.6,1.4,1.4,1.8,2.3c0.5,0.9,0.7,2,0.7,3.3c0,1.6-0.3,2.9-1,4.2c-0.7,1.2-1.7,2.2-2.9,2.8
		C328.3,146.5,326.9,146.8,325.3,146.8z M338.3,132.6v6h0.5h0.6c0.7,0,1.3,0,1.8-0.1c0.8-0.2,1.5-0.5,2-1.1c0.5-0.5,0.8-1.2,0.8-2
		c0-1.5-0.8-2.4-2.4-2.7c-0.2,0-0.7-0.1-1.4-0.1c-0.1,0-0.3,0-0.5,0c-0.2,0-0.3,0-0.4,0c-0.1,0-0.2,0-0.4,0
		C338.6,132.6,338.4,132.6,338.3,132.6z M336.4,146.6v-14.8h4.6c1.6,0,2.9,0.3,3.6,0.8c0.8,0.5,1.2,1.4,1.2,2.5
		c0,0.6-0.1,1.1-0.4,1.6c-0.2,0.5-0.6,0.9-1,1.2c-0.4,0.3-0.9,0.6-1.4,0.8c-0.5,0.2-1.1,0.4-1.7,0.5l4.5,5.6l1,1.2l0.4,0.5l-0.5,0
		h-0.1c-0.1,0-0.1,0-0.2,0H346h-0.3l-0.4,0l-0.5,0c-0.6-0.9-1.1-1.5-1.4-1.9l-2.6-3.3l-1.7-2h-0.8v7.2l-0.4,0c-0.1,0-0.2,0-0.3,0
		h-0.3l-0.4,0L336.4,146.6z M351.5,132.8v5.4h3.4h0.6l0.7-0.1l0.7-0.1l-0.1,0.3l0,0.2l0,0.2l0.1,0.4l-0.7,0l-0.7-0.1h-0.6h-3.4v6.3
		c0.1,0,0.7,0,1.8-0.1s1.8,0,2.2,0c0.3,0,0.6,0,0.9-0.1c0.3,0,0.7-0.1,1.1-0.1l0,0.2l0,0.2v0.2c0,0.1,0,0.2,0,0.3l0.1,0.3h-7.8
		v-14.8h7.7l0,0.4l0,0.3l0,0.3l0,0.4c-0.4-0.1-0.7-0.1-0.9-0.2c-0.3,0-0.7-0.1-1-0.1l-2.2-0.1H351.5z M359.9,143.6h0.2
		c0.5,0.8,1,1.3,1.5,1.7c0.5,0.4,1.2,0.5,2,0.5c0.6,0,1.1-0.1,1.6-0.4c0.5-0.3,0.8-0.7,1.1-1.2c0.3-0.5,0.4-1,0.4-1.6
		c0-0.9-0.3-1.5-0.8-2c-0.5-0.4-1.4-0.9-2.5-1.3c-1.1-0.5-2-0.9-2.6-1.5c-0.6-0.5-0.9-1.4-0.9-2.4c0-1.3,0.5-2.4,1.4-3.1
		c0.9-0.7,2-1.1,3.4-1.1c0.6,0,1.1,0.1,1.7,0.3s1,0.4,1.4,0.8c-0.1,0.2-0.3,0.8-0.6,1.8H367c-0.2-0.6-0.5-1-1-1.4
		c-0.5-0.3-1-0.5-1.6-0.5c-0.5,0-1,0.1-1.4,0.3c-0.4,0.2-0.7,0.5-1,0.9c-0.2,0.4-0.4,0.8-0.4,1.3c0,0.9,0.3,1.5,0.8,1.9
		c0.5,0.4,1.4,0.9,2.5,1.3c1.2,0.5,2,0.9,2.6,1.4c0.6,0.5,0.9,1.3,0.9,2.3c0,0.8-0.1,1.4-0.4,2c-0.3,0.6-0.7,1.1-1.2,1.6
		c-0.5,0.4-1.1,0.8-1.7,1c-0.3,0.1-0.7,0.2-1,0.2c-0.3,0.1-0.7,0.1-1.1,0.1c-0.3,0-0.6,0-0.9-0.1c-0.3-0.1-0.7-0.1-1-0.3
		c-0.7-0.2-1.2-0.5-1.6-0.9C359.6,145.1,359.8,144.5,359.9,143.6z M376.4,132.8v13.8l-0.4,0c-0.1,0-0.2,0-0.3,0l-0.3,0l-0.5,0
		l-0.5,0v-13.8c-1.5,0-3.1,0.1-4.7,0.3l0-0.3l0-0.3l0-0.2V132l0-0.3H381l0,0.4l0,0.3l0,0.3l0,0.4l-2.1-0.2c-0.3,0-0.6,0-0.9,0
		C377.2,132.8,376.7,132.8,376.4,132.8z M400.4,138v-6.2l0.5,0.1h0.4h0.4l0.6-0.1v14.8l-0.4,0c-0.1,0-0.2,0-0.3,0h-0.3H401l-0.3,0
		l-0.3,0v-7.5l-1.5,0l-1.8-0.1h-1.3h-1.3c-0.2,0-0.5,0-0.9,0c-0.4,0-0.7,0.1-0.8,0.1l-1.5,0v7.5l-0.4,0c-0.1,0-0.2,0-0.3,0h-0.3
		l-0.4,0l-0.5,0v-14.8l0.6,0.1h0.4h0.4l0.6-0.1v6.2l4.6,0.1c0.7,0,1.4-0.1,2.3-0.1C399,138,399.8,138,400.4,138z M419.3,139
		c0-0.7-0.1-1.3-0.1-1.8c-0.1-0.5-0.2-1-0.4-1.5c-0.2-0.5-0.5-1-0.8-1.4c-0.4-0.5-0.8-0.8-1.2-1.1c-0.5-0.3-1-0.5-1.6-0.7
		c-0.6-0.2-1.2-0.3-1.7-0.3c-1,0-1.8,0.2-2.6,0.5c-0.8,0.3-1.4,0.9-2,1.5c-0.5,0.7-0.9,1.4-1.2,2.3c-0.3,0.9-0.4,1.9-0.4,3
		c0,1,0.2,2,0.5,2.8c0.3,0.8,0.7,1.5,1.3,2.1c0.5,0.6,1.2,1,1.9,1.3c0.7,0.3,1.5,0.5,2.3,0.5c1,0,1.9-0.2,2.7-0.7
		c0.8-0.5,1.4-1,1.9-1.8c0.5-0.7,0.9-1.5,1.1-2.4C419.1,140.5,419.3,139.7,419.3,139z M413.2,146.8c-1.2,0-2.3-0.2-3.3-0.5
		c-1-0.3-1.8-0.9-2.6-1.6c-0.7-0.7-1.2-1.5-1.6-2.4c-0.2-0.5-0.3-1-0.4-1.5c-0.1-0.5-0.1-1-0.1-1.6c0-1.2,0.2-2.2,0.6-3.2
		c0.4-1,1-1.8,1.7-2.5c0.7-0.7,1.6-1.2,2.6-1.5s2-0.5,3.1-0.5c1,0,2.1,0.1,3.1,0.4c1,0.3,1.8,0.8,2.6,1.4c0.8,0.6,1.4,1.4,1.8,2.3
		c0.5,0.9,0.7,2,0.7,3.3c0,1.6-0.4,2.9-1,4.2c-0.7,1.2-1.7,2.2-2.9,2.8C416.2,146.5,414.7,146.8,413.2,146.8z M426.3,131.7v8.3
		c0,1,0.1,1.8,0.2,2.6c0.2,0.7,0.4,1.3,0.8,1.8s0.9,0.9,1.5,1.1c0.3,0.1,0.7,0.2,1,0.3c0.4,0.1,0.8,0.1,1.2,0.1
		c1.6,0,2.8-0.5,3.5-1.6c0.8-1,1.1-2.5,1.1-4.4v-8.1l0.3,0.1h0.3h0.2l0.4-0.1v8.6c0,1.4-0.3,2.6-0.8,3.6c-0.5,0.9-1.2,1.7-2.2,2.2
		c-1,0.5-2.1,0.7-3.4,0.7c-0.7,0-1.4-0.1-1.9-0.2s-1.1-0.3-1.5-0.5c-0.5-0.2-0.9-0.5-1.2-0.9c-0.6-0.6-1-1.2-1.2-2.1
		c-0.1-0.5-0.2-0.9-0.2-1.4c-0.1-0.4-0.1-0.9-0.1-1.5v-8.7l0.5,0.1h0.4h0.4L426.3,131.7z M440.5,143.6h0.2c0.5,0.8,1,1.3,1.5,1.7
		c0.6,0.4,1.2,0.5,2,0.5c0.6,0,1.1-0.1,1.5-0.4s0.8-0.7,1.1-1.2c0.3-0.5,0.4-1,0.4-1.6c0-0.9-0.3-1.5-0.8-2
		c-0.5-0.4-1.4-0.9-2.5-1.3c-1.1-0.5-2-0.9-2.6-1.5c-0.6-0.5-0.9-1.4-0.9-2.4c0-1.3,0.5-2.4,1.4-3.1c0.9-0.7,2-1.1,3.5-1.1
		c0.6,0,1.1,0.1,1.7,0.3c0.6,0.2,1,0.4,1.4,0.8c-0.1,0.2-0.3,0.8-0.6,1.8h-0.2c-0.2-0.6-0.5-1-1-1.4c-0.5-0.3-1-0.5-1.6-0.5
		c-0.5,0-1,0.1-1.4,0.3c-0.4,0.2-0.8,0.5-1,0.9c-0.3,0.4-0.4,0.8-0.4,1.3c0,0.9,0.3,1.5,0.8,1.9c0.5,0.4,1.4,0.9,2.6,1.3
		c1.1,0.5,2,0.9,2.6,1.4c0.6,0.5,0.9,1.3,0.9,2.3c0,0.8-0.1,1.4-0.4,2c-0.3,0.6-0.7,1.1-1.2,1.6c-0.5,0.4-1.1,0.8-1.7,1
		c-0.3,0.1-0.7,0.2-1,0.2c-0.3,0.1-0.7,0.1-1.1,0.1c-0.3,0-0.6,0-0.9-0.1c-0.3-0.1-0.6-0.1-1-0.3c-0.7-0.2-1.2-0.5-1.6-0.9
		C440.3,145.1,440.4,144.5,440.5,143.6z M453.8,132.8v5.4h3.3h0.6l0.7-0.1l0.7-0.1l0,0.3l0,0.2l0,0.2l0,0.4l-0.7,0l-0.7-0.1h-0.6
		h-3.3v6.3c0.1,0,0.7,0,1.7-0.1s1.8,0,2.2,0c0.3,0,0.6,0,0.9-0.1c0.3,0,0.7-0.1,1.1-0.1l-0.1,0.2l0,0.2v0.2c0,0.1,0,0.2,0,0.3
		l0.1,0.3h-7.9v-14.8h7.7l-0.1,0.4v0.3v0.3l0.1,0.4c-0.4-0.1-0.7-0.1-0.9-0.2c-0.3,0-0.7-0.1-1.1-0.1l-2.2-0.1H453.8z M355.1,155.5
		v3.8h2.4h0.4l0.5,0l0.5-0.1l0,0.2l0,0.2l0,0.2l0,0.3l-0.5,0l-0.5,0h-0.4h-2.4v4.4c0.1,0,0.5,0,1.2,0c0.7,0,1.2,0,1.5,0
		c0.2,0,0.4,0,0.6,0c0.2,0,0.5-0.1,0.8-0.1l0,0.2l0,0.1v0.1c0,0.1,0,0.2,0,0.2l0.1,0.2h-5.5v-10.3h5.4l0,0.3v0.2v0.2l0,0.3
		c-0.3-0.1-0.5-0.1-0.6-0.1c-0.3,0-0.5-0.1-0.8-0.1l-1.5,0H355.1z M367,158.4l-0.3,1h-0.1c-0.2-0.3-0.3-0.5-0.4-0.5
		c-0.1-0.2-0.4-0.3-0.7-0.4c-0.3-0.1-0.6-0.2-0.9-0.2c-0.8,0-1.4,0.3-1.9,0.9c-0.2,0.3-0.4,0.7-0.5,1c-0.1,0.4-0.2,0.8-0.2,1.2
		c0,0.3,0,0.7,0.1,0.9c0.1,0.3,0.1,0.6,0.3,0.8c0.2,0.5,0.6,0.9,1,1.2c0.4,0.3,0.9,0.5,1.4,0.5c0.4,0,0.7-0.1,1-0.3
		c0.3-0.1,0.7-0.4,1-0.7l0.1,0.1l-0.1,0.7c-0.7,0.5-1.5,0.8-2.3,0.8c-0.8,0-1.5-0.2-2.1-0.5c-0.6-0.3-1-0.8-1.3-1.4
		c-0.3-0.6-0.5-1.2-0.5-1.9c0-0.8,0.2-1.4,0.5-2c0.3-0.6,0.8-1,1.4-1.3c0.6-0.3,1.3-0.4,2-0.4C365.5,157.8,366.3,158,367,158.4z
		 M368.1,161.4c0-0.5,0.1-1,0.3-1.5c0.2-0.4,0.5-0.8,0.8-1.1c0.3-0.3,0.7-0.6,1.2-0.8c0.5-0.2,1-0.3,1.5-0.3c0.7,0,1.3,0.1,1.8,0.4
		c0.5,0.3,0.9,0.7,1.2,1.3c0.3,0.6,0.4,1.2,0.4,2c0,0.5-0.1,1-0.2,1.4c-0.2,0.5-0.4,0.9-0.7,1.2c-0.3,0.3-0.7,0.6-1.2,0.8
		c-0.5,0.2-1,0.3-1.6,0.3c-0.7,0-1.3-0.1-1.8-0.5c-0.5-0.3-1-0.8-1.3-1.3C368.3,162.9,368.1,162.2,368.1,161.4z M372,158.3
		c-0.6,0-1.1,0.2-1.5,0.5c-0.4,0.3-0.6,0.7-0.8,1.3c-0.2,0.5-0.2,1-0.2,1.6s0.1,1.1,0.2,1.5c0.2,0.5,0.4,0.9,0.8,1.1
		c0.4,0.3,0.8,0.5,1.4,0.5s1-0.2,1.3-0.5c0.3-0.4,0.6-0.8,0.8-1.3c0.2-0.5,0.2-1,0.2-1.5c0-0.4,0-0.7-0.1-1.1
		c-0.1-0.4-0.2-0.7-0.4-1c-0.2-0.3-0.4-0.6-0.7-0.8C372.7,158.4,372.4,158.3,372,158.3z M376.7,162.2v-0.9h3.8v0.9H376.7z
		 M382.3,165.2v-11.4l0.3,0h0.3h0.3l0.3,0v5.5c0.6-1,1.4-1.5,2.4-1.5c0.9,0,1.5,0.2,1.9,0.7c0.4,0.5,0.6,1.2,0.6,2.2v4.4l-0.3,0
		c-0.1,0-0.1,0-0.2,0h-0.2h-0.2l-0.2,0l-0.2,0v-4.1c0-0.5,0-0.8-0.1-1.1s-0.2-0.6-0.3-0.8c-0.3-0.4-0.7-0.6-1.3-0.6
		c-1.3,0-2,0.8-2,2.4v4.1l-0.2,0c-0.1,0-0.1,0-0.2,0h-0.2h-0.2h-0.2L382.3,165.2z M390.1,161.4c0-0.5,0.1-1,0.3-1.5
		c0.2-0.4,0.5-0.8,0.8-1.1c0.3-0.3,0.8-0.6,1.2-0.8s1-0.3,1.5-0.3c0.7,0,1.3,0.1,1.8,0.4c0.5,0.3,1,0.7,1.2,1.3
		c0.3,0.6,0.5,1.2,0.5,2c0,0.5-0.1,1-0.3,1.4c-0.2,0.5-0.4,0.9-0.7,1.2c-0.3,0.3-0.7,0.6-1.2,0.8c-0.5,0.2-1,0.3-1.6,0.3
		c-0.7,0-1.2-0.1-1.8-0.5c-0.5-0.3-1-0.8-1.3-1.3C390.2,162.9,390.1,162.2,390.1,161.4z M393.9,158.3c-0.6,0-1.1,0.2-1.5,0.5
		c-0.4,0.3-0.6,0.7-0.8,1.3c-0.1,0.5-0.2,1-0.2,1.6s0.1,1.1,0.2,1.5c0.2,0.5,0.4,0.9,0.8,1.1c0.3,0.3,0.8,0.5,1.3,0.5
		c0.5,0,1-0.2,1.3-0.5c0.4-0.4,0.6-0.8,0.8-1.3c0.2-0.5,0.3-1,0.3-1.5c0-0.4-0.1-0.7-0.1-1.1c-0.1-0.4-0.2-0.7-0.4-1
		c-0.2-0.3-0.4-0.6-0.7-0.8C394.7,158.4,394.3,158.3,393.9,158.3z M399,156.4l1.2-0.5v2h1.6l0,0.3c0,0.1,0,0.2,0,0.3h-1.6v3.8v0.6
		c0,0.6,0.1,1,0.2,1.4c0.2,0.3,0.5,0.5,0.9,0.5c0.1,0,0.1,0,0.3,0c0.1,0,0.2,0,0.4-0.1v0.4c-0.5,0.2-0.9,0.3-1.3,0.3
		c-0.3,0-0.5,0-0.7-0.1c-0.2-0.1-0.4-0.2-0.5-0.4c-0.2-0.2-0.3-0.4-0.4-0.8c-0.1-0.3-0.1-0.7-0.1-1.1v-4.4h-0.9c0-0.1,0-0.2,0-0.3
		c0-0.1,0-0.2,0-0.3h0.9V156.4z M408.9,163.6v0.8c-0.4,0.3-0.8,0.5-1.3,0.7c-0.2,0.1-0.4,0.1-0.7,0.2c-0.2,0-0.4,0.1-0.7,0.1
		c-0.7,0-1.3-0.1-1.9-0.5c-0.5-0.3-1-0.7-1.3-1.3c-0.3-0.6-0.5-1.2-0.5-2c0-0.7,0.1-1.3,0.4-1.9c0.3-0.6,0.7-1,1.2-1.3
		c0.5-0.3,1.2-0.5,1.9-0.5c0.4,0,0.8,0.1,1.2,0.2c0.4,0.1,0.7,0.3,1,0.6c0.3,0.3,0.5,0.6,0.7,1c0.2,0.5,0.3,0.9,0.3,1.5v0.2l0,0.2
		c-0.3,0-0.9,0-1.5,0c-0.7,0-1.2,0-1.5,0H404v0.3c0,0.4,0.1,0.7,0.2,1.1c0.1,0.3,0.3,0.7,0.5,0.9c0.2,0.3,0.5,0.5,0.9,0.6
		c0.3,0.1,0.7,0.2,1.1,0.2C407.4,164.6,408.2,164.3,408.9,163.6z M404,160.9h4.1c0-0.4-0.1-0.7-0.1-1c-0.1-0.3-0.2-0.6-0.3-0.9
		c-0.3-0.5-0.8-0.7-1.4-0.7c-0.5,0-0.8,0.1-1.1,0.4c-0.3,0.3-0.6,0.6-0.7,1c-0.1,0.2-0.2,0.5-0.2,0.7C404,160.5,404,160.7,404,160.9
		z M411.3,165.2v-11.4l0.3,0h0.3h0.3l0.3,0v11.4l-0.3,0c-0.1,0-0.1,0-0.1,0h-0.2h-0.2h-0.1L411.3,165.2z"/>
</g>
</svg>
